G75*
G70*
%OFA0B0*%
%FSLAX24Y24*%
%IPPOS*%
%LPD*%
%AMOC8*
5,1,8,0,0,1.08239X$1,22.5*
%
%ADD10C,0.0000*%
%ADD11C,0.0030*%
%ADD12C,0.0040*%
%ADD13C,0.0060*%
%ADD14C,0.0050*%
%ADD15R,0.0240X0.0340*%
%ADD16C,0.0100*%
%ADD17C,0.0080*%
%ADD18C,0.0200*%
%ADD19R,0.0500X0.0750*%
%ADD20R,0.0300X0.0700*%
%ADD21R,0.0500X0.0300*%
%ADD22R,0.0340X0.0240*%
D10*
X000181Y000181D02*
X000181Y019866D01*
X019866Y019866D01*
X019866Y000181D01*
X000181Y000181D01*
D11*
X001446Y001120D02*
X001495Y001071D01*
X001592Y001071D01*
X001640Y001120D01*
X001640Y001168D01*
X001592Y001217D01*
X001543Y001217D01*
X001592Y001217D02*
X001640Y001265D01*
X001640Y001313D01*
X001592Y001362D01*
X001495Y001362D01*
X001446Y001313D01*
X001741Y001120D02*
X001789Y001120D01*
X001789Y001071D01*
X001741Y001071D01*
X001741Y001120D01*
X001888Y001120D02*
X001937Y001071D01*
X002034Y001071D01*
X002082Y001120D01*
X002082Y001168D01*
X002034Y001217D01*
X001985Y001217D01*
X002034Y001217D02*
X002082Y001265D01*
X002082Y001313D01*
X002034Y001362D01*
X001937Y001362D01*
X001888Y001313D01*
X002183Y001362D02*
X002183Y001168D01*
X002280Y001071D01*
X002376Y001168D01*
X002376Y001362D01*
X002946Y001946D02*
X002946Y002237D01*
X003092Y002237D01*
X003140Y002188D01*
X003140Y002092D01*
X003092Y002043D01*
X002946Y002043D01*
X003241Y001946D02*
X003338Y001946D01*
X003289Y001946D02*
X003289Y002237D01*
X003241Y002237D02*
X003338Y002237D01*
X003437Y002188D02*
X003437Y001995D01*
X003486Y001946D01*
X003583Y001946D01*
X003631Y001995D01*
X003732Y002043D02*
X003877Y002140D01*
X003978Y002140D02*
X004026Y002140D01*
X004026Y001946D01*
X003978Y001946D02*
X004074Y001946D01*
X004222Y001995D02*
X004271Y001946D01*
X004222Y001995D02*
X004222Y002188D01*
X004174Y002140D02*
X004271Y002140D01*
X004370Y002188D02*
X004419Y002237D01*
X004516Y002237D01*
X004564Y002188D01*
X004564Y002140D01*
X004516Y002092D01*
X004564Y002043D01*
X004564Y001995D01*
X004516Y001946D01*
X004419Y001946D01*
X004370Y001995D01*
X004467Y002092D02*
X004516Y002092D01*
X004026Y002237D02*
X004026Y002285D01*
X003732Y002237D02*
X003732Y001946D01*
X003732Y002043D02*
X003877Y001946D01*
X003631Y002188D02*
X003583Y002237D01*
X003486Y002237D01*
X003437Y002188D01*
X002229Y002245D02*
X002181Y002196D01*
X002036Y002196D01*
X002036Y002487D01*
X002181Y002487D01*
X002229Y002438D01*
X002229Y002245D01*
X001935Y002196D02*
X001935Y002487D01*
X001741Y002487D02*
X001935Y002196D01*
X001741Y002196D02*
X001741Y002487D01*
X001640Y002438D02*
X001592Y002487D01*
X001495Y002487D01*
X001446Y002438D01*
X001446Y002245D01*
X001495Y002196D01*
X001592Y002196D01*
X001640Y002245D01*
X001640Y002342D01*
X001543Y002342D01*
X001592Y003196D02*
X001446Y003196D01*
X001446Y003487D01*
X001592Y003487D01*
X001640Y003438D01*
X001640Y003390D01*
X001592Y003342D01*
X001446Y003342D01*
X001592Y003342D02*
X001640Y003293D01*
X001640Y003245D01*
X001592Y003196D01*
X001741Y003245D02*
X001789Y003196D01*
X001886Y003196D01*
X001935Y003245D01*
X001935Y003342D01*
X001886Y003390D01*
X001838Y003390D01*
X001741Y003342D01*
X001741Y003487D01*
X001935Y003487D01*
X001886Y004196D02*
X001886Y004487D01*
X001741Y004342D01*
X001935Y004342D01*
X001640Y004342D02*
X001446Y004342D01*
X001446Y004390D02*
X001543Y004487D01*
X001640Y004390D01*
X001640Y004196D01*
X001446Y004196D02*
X001446Y004390D01*
X001446Y006196D02*
X001592Y006196D01*
X001640Y006245D01*
X001640Y006293D01*
X001592Y006342D01*
X001446Y006342D01*
X001446Y006487D02*
X001446Y006196D01*
X001592Y006342D02*
X001640Y006390D01*
X001640Y006438D01*
X001592Y006487D01*
X001446Y006487D01*
X001741Y006342D02*
X001935Y006342D01*
X001886Y006487D02*
X001886Y006196D01*
X001741Y006342D02*
X001886Y006487D01*
X001886Y007196D02*
X001789Y007196D01*
X001741Y007245D01*
X001640Y007245D02*
X001592Y007196D01*
X001446Y007196D01*
X001446Y007487D01*
X001592Y007487D01*
X001640Y007438D01*
X001640Y007390D01*
X001592Y007342D01*
X001446Y007342D01*
X001592Y007342D02*
X001640Y007293D01*
X001640Y007245D01*
X001741Y007438D02*
X001789Y007487D01*
X001886Y007487D01*
X001935Y007438D01*
X001935Y007390D01*
X001886Y007342D01*
X001935Y007293D01*
X001935Y007245D01*
X001886Y007196D01*
X001886Y007342D02*
X001838Y007342D01*
X001935Y008196D02*
X001741Y008196D01*
X001935Y008390D01*
X001935Y008438D01*
X001886Y008487D01*
X001789Y008487D01*
X001741Y008438D01*
X001640Y008438D02*
X001640Y008390D01*
X001592Y008342D01*
X001446Y008342D01*
X001446Y008487D02*
X001446Y008196D01*
X001592Y008196D01*
X001640Y008245D01*
X001640Y008293D01*
X001592Y008342D01*
X001640Y008438D02*
X001592Y008487D01*
X001446Y008487D01*
X001416Y009166D02*
X001562Y009166D01*
X001610Y009215D01*
X001610Y009263D01*
X001562Y009312D01*
X001416Y009312D01*
X001416Y009457D02*
X001416Y009166D01*
X001562Y009312D02*
X001610Y009360D01*
X001610Y009408D01*
X001562Y009457D01*
X001416Y009457D01*
X001711Y009360D02*
X001808Y009457D01*
X001808Y009166D01*
X001711Y009166D02*
X001905Y009166D01*
X001886Y011196D02*
X001789Y011196D01*
X001741Y011245D01*
X001935Y011438D01*
X001935Y011245D01*
X001886Y011196D01*
X001741Y011245D02*
X001741Y011438D01*
X001789Y011487D01*
X001886Y011487D01*
X001935Y011438D01*
X001640Y011438D02*
X001640Y011390D01*
X001592Y011342D01*
X001446Y011342D01*
X001446Y011487D02*
X001446Y011196D01*
X001592Y011196D01*
X001640Y011245D01*
X001640Y011293D01*
X001592Y011342D01*
X001640Y011438D02*
X001592Y011487D01*
X001446Y011487D01*
X001446Y012196D02*
X001446Y012390D01*
X001543Y012487D01*
X001640Y012390D01*
X001640Y012196D01*
X001741Y012196D02*
X001935Y012196D01*
X001838Y012196D02*
X001838Y012487D01*
X001741Y012390D01*
X001640Y012342D02*
X001446Y012342D01*
X001446Y013196D02*
X001446Y013390D01*
X001543Y013487D01*
X001640Y013390D01*
X001640Y013196D01*
X001741Y013245D02*
X001935Y013438D01*
X001935Y013245D01*
X001886Y013196D01*
X001789Y013196D01*
X001741Y013245D01*
X001741Y013438D01*
X001789Y013487D01*
X001886Y013487D01*
X001935Y013438D01*
X001640Y013342D02*
X001446Y013342D01*
X001416Y014226D02*
X001416Y014517D01*
X001513Y014420D01*
X001610Y014517D01*
X001610Y014226D01*
X001711Y014275D02*
X001711Y014468D01*
X001759Y014517D01*
X001856Y014517D01*
X001905Y014468D01*
X002006Y014517D02*
X002006Y014226D01*
X002199Y014226D01*
X002300Y014226D02*
X002300Y014517D01*
X002445Y014517D01*
X002494Y014468D01*
X002494Y014372D01*
X002445Y014323D01*
X002300Y014323D01*
X002397Y014323D02*
X002494Y014226D01*
X001905Y014275D02*
X001856Y014226D01*
X001759Y014226D01*
X001711Y014275D01*
X007696Y015196D02*
X007890Y015196D01*
X007793Y015196D02*
X007793Y015487D01*
X007696Y015390D01*
X007991Y015438D02*
X007991Y015245D01*
X008185Y015438D01*
X008185Y015245D01*
X008136Y015196D01*
X008039Y015196D01*
X007991Y015245D01*
X007991Y015438D02*
X008039Y015487D01*
X008136Y015487D01*
X008185Y015438D01*
X008286Y015390D02*
X008286Y015245D01*
X008334Y015196D01*
X008479Y015196D01*
X008479Y015390D01*
X008580Y015342D02*
X008677Y015342D01*
X008580Y015487D02*
X008580Y015196D01*
X008580Y015487D02*
X008774Y015487D01*
X009196Y017696D02*
X009245Y017696D01*
X009245Y017745D01*
X009196Y017745D01*
X009196Y017696D01*
X009344Y017696D02*
X009537Y017696D01*
X009440Y017696D02*
X009440Y017987D01*
X009344Y017890D01*
X009638Y017890D02*
X009638Y017745D01*
X009687Y017696D01*
X009832Y017696D01*
X009832Y017890D01*
X009933Y017842D02*
X010030Y017842D01*
X010126Y017987D02*
X009933Y017987D01*
X009933Y017696D01*
X010696Y019196D02*
X010696Y019487D01*
X010842Y019487D01*
X010890Y019438D01*
X010890Y019342D01*
X010842Y019293D01*
X010696Y019293D01*
X010991Y019245D02*
X010991Y019438D01*
X011039Y019487D01*
X011136Y019487D01*
X011185Y019438D01*
X011185Y019245D01*
X011136Y019196D01*
X011039Y019196D01*
X010991Y019245D01*
X011286Y019196D02*
X011382Y019293D01*
X011479Y019196D01*
X011479Y019487D01*
X011580Y019487D02*
X011580Y019196D01*
X011774Y019196D01*
X011875Y019196D02*
X011875Y019487D01*
X012020Y019487D01*
X012068Y019438D01*
X012068Y019342D01*
X012020Y019293D01*
X011875Y019293D01*
X011972Y019293D02*
X012068Y019196D01*
X011774Y019487D02*
X011580Y019487D01*
X011580Y019342D02*
X011677Y019342D01*
X011286Y019487D02*
X011286Y019196D01*
X012940Y015487D02*
X012940Y015196D01*
X012844Y015196D02*
X013037Y015196D01*
X013138Y015245D02*
X013187Y015196D01*
X013332Y015196D01*
X013332Y015390D01*
X013433Y015342D02*
X013530Y015342D01*
X013626Y015487D02*
X013433Y015487D01*
X013433Y015196D01*
X013138Y015245D02*
X013138Y015390D01*
X012940Y015487D02*
X012844Y015390D01*
X012745Y015245D02*
X012745Y015196D01*
X012696Y015196D01*
X012696Y015245D01*
X012745Y015245D01*
X018071Y009987D02*
X018217Y009987D01*
X018265Y009938D01*
X018265Y009890D01*
X018217Y009842D01*
X018071Y009842D01*
X018071Y009987D02*
X018071Y009696D01*
X018217Y009696D01*
X018265Y009745D01*
X018265Y009793D01*
X018217Y009842D01*
X018366Y009890D02*
X018463Y009987D01*
X018463Y009696D01*
X018366Y009696D02*
X018560Y009696D01*
X018661Y009745D02*
X018709Y009696D01*
X018806Y009696D01*
X018854Y009745D01*
X018854Y009842D01*
X018806Y009890D01*
X018757Y009890D01*
X018661Y009842D01*
X018661Y009987D01*
X018854Y009987D01*
X018806Y008362D02*
X018661Y008217D01*
X018854Y008217D01*
X018806Y008362D02*
X018806Y008071D01*
X018560Y008071D02*
X018366Y008071D01*
X018463Y008071D02*
X018463Y008362D01*
X018366Y008265D01*
X018265Y008265D02*
X018217Y008217D01*
X018071Y008217D01*
X018071Y008362D02*
X018217Y008362D01*
X018265Y008313D01*
X018265Y008265D01*
X018217Y008217D02*
X018265Y008168D01*
X018265Y008120D01*
X018217Y008071D01*
X018071Y008071D01*
X018071Y008362D01*
X018071Y007362D02*
X018217Y007362D01*
X018265Y007313D01*
X018265Y007265D01*
X018217Y007217D01*
X018071Y007217D01*
X018071Y007362D02*
X018071Y007071D01*
X018217Y007071D01*
X018265Y007120D01*
X018265Y007168D01*
X018217Y007217D01*
X018366Y007265D02*
X018463Y007362D01*
X018463Y007071D01*
X018366Y007071D02*
X018560Y007071D01*
X018661Y007120D02*
X018709Y007071D01*
X018806Y007071D01*
X018854Y007120D01*
X018854Y007168D01*
X018806Y007217D01*
X018757Y007217D01*
X018806Y007217D02*
X018854Y007265D01*
X018854Y007313D01*
X018806Y007362D01*
X018709Y007362D01*
X018661Y007313D01*
X018511Y006487D02*
X018414Y006487D01*
X018366Y006438D01*
X018366Y006390D01*
X018414Y006342D01*
X018560Y006342D01*
X018560Y006438D02*
X018560Y006245D01*
X018511Y006196D01*
X018414Y006196D01*
X018366Y006245D01*
X018265Y006245D02*
X018217Y006196D01*
X018071Y006196D01*
X018071Y006487D01*
X018217Y006487D01*
X018265Y006438D01*
X018265Y006390D01*
X018217Y006342D01*
X018071Y006342D01*
X018217Y006342D02*
X018265Y006293D01*
X018265Y006245D01*
X018511Y006487D02*
X018560Y006438D01*
X018511Y004487D02*
X018560Y004438D01*
X018560Y004390D01*
X018511Y004342D01*
X018414Y004342D01*
X018366Y004390D01*
X018366Y004438D01*
X018414Y004487D01*
X018511Y004487D01*
X018511Y004342D02*
X018560Y004293D01*
X018560Y004245D01*
X018511Y004196D01*
X018414Y004196D01*
X018366Y004245D01*
X018366Y004293D01*
X018414Y004342D01*
X018265Y004390D02*
X018265Y004438D01*
X018217Y004487D01*
X018071Y004487D01*
X018071Y004196D01*
X018217Y004196D01*
X018265Y004245D01*
X018265Y004293D01*
X018217Y004342D01*
X018071Y004342D01*
X018217Y004342D02*
X018265Y004390D01*
X018217Y003362D02*
X018071Y003362D01*
X018071Y003071D01*
X018217Y003071D01*
X018265Y003120D01*
X018265Y003168D01*
X018217Y003217D01*
X018071Y003217D01*
X018217Y003217D02*
X018265Y003265D01*
X018265Y003313D01*
X018217Y003362D01*
X018366Y003362D02*
X018560Y003362D01*
X018560Y003313D01*
X018366Y003120D01*
X018366Y003071D01*
X018411Y002362D02*
X018556Y002362D01*
X018604Y002313D01*
X018604Y002120D01*
X018556Y002071D01*
X018411Y002071D01*
X018411Y002362D01*
X018310Y002362D02*
X018310Y002071D01*
X018116Y002362D01*
X018116Y002071D01*
X018015Y002120D02*
X018015Y002217D01*
X017918Y002217D01*
X017821Y002313D02*
X017821Y002120D01*
X017870Y002071D01*
X017967Y002071D01*
X018015Y002120D01*
X018015Y002313D02*
X017967Y002362D01*
X017870Y002362D01*
X017821Y002313D01*
X017946Y001362D02*
X017946Y001217D01*
X018043Y001265D01*
X018092Y001265D01*
X018140Y001217D01*
X018140Y001120D01*
X018092Y001071D01*
X017995Y001071D01*
X017946Y001120D01*
X017946Y001362D02*
X018140Y001362D01*
X018241Y001362D02*
X018241Y001168D01*
X018338Y001071D01*
X018435Y001168D01*
X018435Y001362D01*
X015618Y004696D02*
X015666Y004745D01*
X015666Y004842D01*
X015618Y004890D01*
X015570Y004890D01*
X015521Y004842D01*
X015521Y004793D01*
X015521Y004842D02*
X015473Y004890D01*
X015425Y004890D01*
X015376Y004842D01*
X015376Y004745D01*
X015425Y004696D01*
X015425Y004991D02*
X015376Y005039D01*
X015376Y005136D01*
X015425Y005185D01*
X015473Y005185D01*
X015521Y005136D01*
X015570Y005185D01*
X015618Y005185D01*
X015666Y005136D01*
X015666Y005039D01*
X015618Y004991D01*
X015521Y005088D02*
X015521Y005136D01*
X015425Y005286D02*
X015376Y005334D01*
X015376Y005431D01*
X015425Y005479D01*
X015618Y005286D01*
X015666Y005334D01*
X015666Y005431D01*
X015618Y005479D01*
X015425Y005479D01*
X015425Y005286D02*
X015618Y005286D01*
X014774Y004987D02*
X014580Y004987D01*
X014580Y004696D01*
X014479Y004696D02*
X014479Y004890D01*
X014580Y004842D02*
X014677Y004842D01*
X014479Y004696D02*
X014334Y004696D01*
X014286Y004745D01*
X014286Y004890D01*
X014185Y004938D02*
X014185Y004745D01*
X014136Y004696D01*
X014039Y004696D01*
X013991Y004745D01*
X014185Y004938D01*
X014136Y004987D01*
X014039Y004987D01*
X013991Y004938D01*
X013991Y004745D01*
X013890Y004696D02*
X013696Y004696D01*
X013793Y004696D02*
X013793Y004987D01*
X013696Y004890D01*
X007376Y003737D02*
X007183Y003737D01*
X007183Y003446D01*
X007082Y003446D02*
X007082Y003640D01*
X007183Y003592D02*
X007280Y003592D01*
X007082Y003446D02*
X006937Y003446D01*
X006888Y003495D01*
X006888Y003640D01*
X006787Y003446D02*
X006594Y003446D01*
X006690Y003446D02*
X006690Y003737D01*
X006594Y003640D01*
X006495Y003495D02*
X006495Y003446D01*
X006446Y003446D01*
X006446Y003495D01*
X006495Y003495D01*
X005118Y006196D02*
X005070Y006196D01*
X005021Y006245D01*
X005021Y006342D01*
X005070Y006390D01*
X005118Y006390D01*
X005166Y006342D01*
X005166Y006245D01*
X005118Y006196D01*
X005021Y006245D02*
X004973Y006196D01*
X004925Y006196D01*
X004876Y006245D01*
X004876Y006342D01*
X004925Y006390D01*
X004973Y006390D01*
X005021Y006342D01*
X004876Y006491D02*
X004973Y006588D01*
X004876Y006685D01*
X005166Y006685D01*
X005166Y006786D02*
X004876Y006786D01*
X005021Y006786D02*
X005021Y006979D01*
X005118Y007080D02*
X005166Y007080D01*
X005166Y007274D01*
X005118Y007080D02*
X004925Y007274D01*
X004876Y007274D01*
X004876Y007080D01*
X004876Y006979D02*
X005166Y006979D01*
X005166Y006491D02*
X004876Y006491D01*
D12*
X004773Y010201D02*
X004620Y010201D01*
X004543Y010278D01*
X004389Y010278D02*
X004313Y010201D01*
X004159Y010201D01*
X004082Y010278D01*
X003929Y010432D02*
X003622Y010432D01*
X003852Y010662D01*
X003852Y010201D01*
X003469Y010201D02*
X003162Y010201D01*
X003162Y010662D01*
X003469Y010662D01*
X003315Y010432D02*
X003162Y010432D01*
X003008Y010662D02*
X003008Y010201D01*
X002701Y010201D02*
X002701Y010662D01*
X002855Y010508D01*
X003008Y010662D01*
X003162Y011701D02*
X003162Y012008D01*
X003162Y011855D02*
X003315Y012008D01*
X003392Y012008D01*
X003545Y011932D02*
X003622Y012008D01*
X003776Y012008D01*
X003852Y011932D01*
X003852Y011855D01*
X003545Y011855D01*
X003545Y011778D02*
X003545Y011932D01*
X003545Y011778D02*
X003622Y011701D01*
X003776Y011701D01*
X004006Y011701D02*
X004236Y011701D01*
X004313Y011778D01*
X004236Y011855D01*
X004082Y011855D01*
X004006Y011932D01*
X004082Y012008D01*
X004313Y012008D01*
X004466Y012008D02*
X004620Y012008D01*
X004543Y012085D02*
X004543Y011778D01*
X004620Y011701D01*
X004773Y011778D02*
X004773Y011932D01*
X004850Y012008D01*
X005003Y012008D01*
X005080Y011932D01*
X005080Y011778D01*
X005003Y011701D01*
X004850Y011701D01*
X004773Y011778D01*
X005233Y011701D02*
X005233Y012008D01*
X005464Y012008D01*
X005540Y011932D01*
X005540Y011701D01*
X006154Y011701D02*
X006307Y011855D01*
X006461Y011701D01*
X006461Y012162D01*
X006691Y012008D02*
X006845Y012008D01*
X006921Y011932D01*
X006921Y011701D01*
X006691Y011701D01*
X006614Y011778D01*
X006691Y011855D01*
X006921Y011855D01*
X007075Y011701D02*
X007075Y012008D01*
X007305Y012008D01*
X007382Y011932D01*
X007382Y011701D01*
X007535Y011778D02*
X007612Y011701D01*
X007842Y011701D01*
X007842Y011625D02*
X007842Y012008D01*
X007612Y012008D01*
X007535Y011932D01*
X007535Y011778D01*
X007689Y011548D02*
X007765Y011548D01*
X007842Y011625D01*
X006154Y011701D02*
X006154Y012162D01*
X006077Y013201D02*
X005770Y013201D01*
X006077Y013508D01*
X006077Y013585D01*
X006001Y013662D01*
X005847Y013662D01*
X005770Y013585D01*
X005617Y013662D02*
X005310Y013201D01*
X005157Y013201D02*
X005157Y013662D01*
X005003Y013508D01*
X004850Y013662D01*
X004850Y013201D01*
X004696Y013201D02*
X004389Y013201D01*
X004696Y013508D01*
X004696Y013585D01*
X004620Y013662D01*
X004466Y013662D01*
X004389Y013585D01*
X004236Y013585D02*
X004236Y013508D01*
X004159Y013432D01*
X004236Y013355D01*
X004236Y013278D01*
X004159Y013201D01*
X004006Y013201D01*
X003929Y013278D01*
X003776Y013278D02*
X003699Y013201D01*
X003545Y013201D01*
X003469Y013278D01*
X003469Y013585D01*
X003545Y013662D01*
X003699Y013662D01*
X003776Y013585D01*
X003929Y013585D02*
X004006Y013662D01*
X004159Y013662D01*
X004236Y013585D01*
X004159Y013432D02*
X004082Y013432D01*
X003315Y013662D02*
X003162Y013662D01*
X003238Y013662D02*
X003238Y013201D01*
X003162Y013201D02*
X003315Y013201D01*
X003008Y013432D02*
X003008Y013585D01*
X002932Y013662D01*
X002701Y013662D01*
X002701Y013201D01*
X002701Y013355D02*
X002932Y013355D01*
X003008Y013432D01*
X002932Y012162D02*
X002701Y012162D01*
X002701Y011701D01*
X002701Y011855D02*
X002932Y011855D01*
X003008Y011932D01*
X003008Y012085D01*
X002932Y012162D01*
X004159Y010662D02*
X004313Y010662D01*
X004389Y010585D01*
X004389Y010508D01*
X004313Y010432D01*
X004389Y010355D01*
X004389Y010278D01*
X004313Y010432D02*
X004236Y010432D01*
X004082Y010585D02*
X004159Y010662D01*
X004543Y010585D02*
X004620Y010662D01*
X004773Y010662D01*
X004850Y010585D01*
X004850Y010508D01*
X004773Y010432D01*
X004850Y010355D01*
X004850Y010278D01*
X004773Y010201D01*
X004773Y010432D02*
X004696Y010432D01*
X005617Y013201D02*
X005310Y013662D01*
X006231Y013662D02*
X006231Y013432D01*
X006384Y013508D01*
X006461Y013508D01*
X006538Y013432D01*
X006538Y013278D01*
X006461Y013201D01*
X006307Y013201D01*
X006231Y013278D01*
X006231Y013662D02*
X006538Y013662D01*
X006691Y013585D02*
X006768Y013662D01*
X006921Y013662D01*
X006998Y013585D01*
X006691Y013278D01*
X006768Y013201D01*
X006921Y013201D01*
X006998Y013278D01*
X006998Y013585D01*
X006691Y013585D02*
X006691Y013278D01*
X013201Y017326D02*
X013201Y017787D01*
X013432Y017787D01*
X013508Y017710D01*
X013508Y017557D01*
X013432Y017480D01*
X013201Y017480D01*
X013355Y017480D02*
X013508Y017326D01*
X013662Y017326D02*
X013969Y017326D01*
X014122Y017403D02*
X014199Y017326D01*
X014352Y017326D01*
X014429Y017403D01*
X014429Y017480D01*
X014352Y017557D01*
X014199Y017557D01*
X014122Y017633D01*
X014122Y017710D01*
X014199Y017787D01*
X014352Y017787D01*
X014429Y017710D01*
X014582Y017787D02*
X014582Y017326D01*
X014889Y017326D01*
X014736Y017557D02*
X014582Y017557D01*
X014582Y017787D02*
X014889Y017787D01*
X015043Y017787D02*
X015350Y017787D01*
X015196Y017787D02*
X015196Y017326D01*
X013969Y017787D02*
X013662Y017787D01*
X013662Y017326D01*
X013662Y017557D02*
X013815Y017557D01*
X016951Y017403D02*
X017028Y017326D01*
X017182Y017326D01*
X017258Y017403D01*
X017258Y017787D01*
X017412Y017710D02*
X017412Y017633D01*
X017488Y017557D01*
X017642Y017557D01*
X017719Y017480D01*
X017719Y017403D01*
X017642Y017326D01*
X017488Y017326D01*
X017412Y017403D01*
X017412Y017710D02*
X017488Y017787D01*
X017642Y017787D01*
X017719Y017710D01*
X017872Y017787D02*
X017872Y017326D01*
X018179Y017326D01*
X018332Y017326D02*
X018332Y017787D01*
X018563Y017787D01*
X018639Y017710D01*
X018639Y017557D01*
X018563Y017480D01*
X018332Y017480D01*
X018486Y017480D02*
X018639Y017326D01*
X018179Y017787D02*
X017872Y017787D01*
X017872Y017557D02*
X018026Y017557D01*
X016951Y017403D02*
X016951Y017787D01*
D13*
X015431Y016531D02*
X015431Y015831D01*
X015429Y015814D01*
X015425Y015797D01*
X015418Y015781D01*
X015408Y015767D01*
X015395Y015754D01*
X015381Y015744D01*
X015365Y015737D01*
X015348Y015733D01*
X015331Y015731D01*
X015181Y015731D01*
X015131Y015781D01*
X013231Y015781D01*
X013181Y015731D01*
X013031Y015731D01*
X013014Y015733D01*
X012997Y015737D01*
X012981Y015744D01*
X012967Y015754D01*
X012954Y015767D01*
X012944Y015781D01*
X012937Y015797D01*
X012933Y015814D01*
X012931Y015831D01*
X012931Y016531D01*
X012933Y016548D01*
X012937Y016565D01*
X012944Y016581D01*
X012954Y016595D01*
X012967Y016608D01*
X012981Y016618D01*
X012997Y016625D01*
X013014Y016629D01*
X013031Y016631D01*
X013181Y016631D01*
X013231Y016581D01*
X015131Y016581D01*
X015181Y016631D01*
X015331Y016631D01*
X015348Y016629D01*
X015365Y016625D01*
X015381Y016618D01*
X015395Y016608D01*
X015408Y016595D01*
X015418Y016581D01*
X015425Y016565D01*
X015429Y016548D01*
X015431Y016531D01*
X016731Y015831D02*
X016731Y015681D01*
X016781Y015631D01*
X016781Y013731D01*
X016731Y013681D01*
X016731Y013531D01*
X016733Y013514D01*
X016737Y013497D01*
X016744Y013481D01*
X016754Y013467D01*
X016767Y013454D01*
X016781Y013444D01*
X016797Y013437D01*
X016814Y013433D01*
X016831Y013431D01*
X017531Y013431D01*
X017548Y013433D01*
X017565Y013437D01*
X017581Y013444D01*
X017595Y013454D01*
X017608Y013467D01*
X017618Y013481D01*
X017625Y013497D01*
X017629Y013514D01*
X017631Y013531D01*
X017631Y013681D01*
X017581Y013731D01*
X017581Y015631D01*
X017631Y015681D01*
X017631Y015831D01*
X017629Y015848D01*
X017625Y015865D01*
X017618Y015881D01*
X017608Y015895D01*
X017595Y015908D01*
X017581Y015918D01*
X017565Y015925D01*
X017548Y015929D01*
X017531Y015931D01*
X016831Y015931D01*
X016814Y015929D01*
X016797Y015925D01*
X016781Y015918D01*
X016767Y015908D01*
X016754Y015895D01*
X016744Y015881D01*
X016737Y015865D01*
X016733Y015848D01*
X016731Y015831D01*
X018231Y015831D02*
X018231Y015681D01*
X018281Y015631D01*
X018281Y013731D01*
X018231Y013681D01*
X018231Y013531D01*
X018233Y013514D01*
X018237Y013497D01*
X018244Y013481D01*
X018254Y013467D01*
X018267Y013454D01*
X018281Y013444D01*
X018297Y013437D01*
X018314Y013433D01*
X018331Y013431D01*
X019031Y013431D01*
X019048Y013433D01*
X019065Y013437D01*
X019081Y013444D01*
X019095Y013454D01*
X019108Y013467D01*
X019118Y013481D01*
X019125Y013497D01*
X019129Y013514D01*
X019131Y013531D01*
X019131Y013681D01*
X019081Y013731D01*
X019081Y015631D01*
X019131Y015681D01*
X019131Y015831D01*
X019129Y015848D01*
X019125Y015865D01*
X019118Y015881D01*
X019108Y015895D01*
X019095Y015908D01*
X019081Y015918D01*
X019065Y015925D01*
X019048Y015929D01*
X019031Y015931D01*
X018331Y015931D01*
X018314Y015929D01*
X018297Y015925D01*
X018281Y015918D01*
X018267Y015908D01*
X018254Y015895D01*
X018244Y015881D01*
X018237Y015865D01*
X018233Y015848D01*
X018231Y015831D01*
X013681Y015031D02*
X013681Y013331D01*
X013679Y013314D01*
X013675Y013297D01*
X013668Y013281D01*
X013658Y013267D01*
X013645Y013254D01*
X013631Y013244D01*
X013615Y013237D01*
X013598Y013233D01*
X013581Y013231D01*
X012781Y013231D01*
X012764Y013233D01*
X012747Y013237D01*
X012731Y013244D01*
X012717Y013254D01*
X012704Y013267D01*
X012694Y013281D01*
X012687Y013297D01*
X012683Y013314D01*
X012681Y013331D01*
X012681Y015031D01*
X012683Y015048D01*
X012687Y015065D01*
X012694Y015081D01*
X012704Y015095D01*
X012717Y015108D01*
X012731Y015118D01*
X012747Y015125D01*
X012764Y015129D01*
X012781Y015131D01*
X013581Y015131D01*
X013598Y015129D01*
X013615Y015125D01*
X013631Y015118D01*
X013645Y015108D01*
X013658Y015095D01*
X013668Y015081D01*
X013675Y015065D01*
X013679Y015048D01*
X013681Y015031D01*
X013181Y014331D02*
X013181Y014281D01*
X013181Y014081D02*
X013181Y014031D01*
X011331Y015181D02*
X010581Y015181D01*
X010579Y015142D01*
X010573Y015103D01*
X010564Y015065D01*
X010551Y015028D01*
X010534Y014992D01*
X010514Y014959D01*
X010490Y014927D01*
X010464Y014898D01*
X010435Y014872D01*
X010403Y014848D01*
X010370Y014828D01*
X010334Y014811D01*
X010297Y014798D01*
X010259Y014789D01*
X010220Y014783D01*
X010181Y014781D01*
X010142Y014783D01*
X010103Y014789D01*
X010065Y014798D01*
X010028Y014811D01*
X009992Y014828D01*
X009959Y014848D01*
X009927Y014872D01*
X009898Y014898D01*
X009872Y014927D01*
X009848Y014959D01*
X009828Y014992D01*
X009811Y015028D01*
X009798Y015065D01*
X009789Y015103D01*
X009783Y015142D01*
X009781Y015181D01*
X009031Y015181D01*
X009031Y001181D01*
X011331Y001181D01*
X011331Y015181D01*
X010181Y015831D02*
X010181Y017531D01*
X010179Y017548D01*
X010175Y017565D01*
X010168Y017581D01*
X010158Y017595D01*
X010145Y017608D01*
X010131Y017618D01*
X010115Y017625D01*
X010098Y017629D01*
X010081Y017631D01*
X009281Y017631D01*
X009264Y017629D01*
X009247Y017625D01*
X009231Y017618D01*
X009217Y017608D01*
X009204Y017595D01*
X009194Y017581D01*
X009187Y017565D01*
X009183Y017548D01*
X009181Y017531D01*
X009181Y015831D01*
X009183Y015814D01*
X009187Y015797D01*
X009194Y015781D01*
X009204Y015767D01*
X009217Y015754D01*
X009231Y015744D01*
X009247Y015737D01*
X009264Y015733D01*
X009281Y015731D01*
X010081Y015731D01*
X010098Y015733D01*
X010115Y015737D01*
X010131Y015744D01*
X010145Y015754D01*
X010158Y015767D01*
X010168Y015781D01*
X010175Y015797D01*
X010179Y015814D01*
X010181Y015831D01*
X009681Y016531D02*
X009681Y016581D01*
X009681Y016781D02*
X009681Y016831D01*
X011549Y017707D02*
X011584Y017737D01*
X011617Y017768D01*
X011647Y017803D01*
X011674Y017839D01*
X011698Y017877D01*
X011720Y017917D01*
X011738Y017959D01*
X011754Y018002D01*
X011766Y018046D01*
X011774Y018090D01*
X011779Y018136D01*
X011781Y018181D01*
X011779Y018226D01*
X011774Y018272D01*
X011766Y018316D01*
X011754Y018360D01*
X011738Y018403D01*
X011720Y018445D01*
X011698Y018485D01*
X011674Y018523D01*
X011647Y018559D01*
X011617Y018594D01*
X011584Y018625D01*
X011549Y018655D01*
X010581Y018181D02*
X010583Y018135D01*
X010588Y018089D01*
X010597Y018043D01*
X010609Y017998D01*
X010625Y017955D01*
X010644Y017913D01*
X010667Y017872D01*
X010692Y017833D01*
X010720Y017797D01*
X010751Y017762D01*
X010785Y017730D01*
X010821Y017701D01*
X010581Y018181D02*
X010583Y018228D01*
X010589Y018276D01*
X010598Y018322D01*
X010611Y018368D01*
X010627Y018412D01*
X010647Y018456D01*
X010671Y018497D01*
X010697Y018536D01*
X010727Y018573D01*
X010760Y018608D01*
X010795Y018640D01*
X010832Y018669D01*
X009131Y018781D02*
X009131Y019581D01*
X009129Y019598D01*
X009125Y019615D01*
X009118Y019631D01*
X009108Y019645D01*
X009095Y019658D01*
X009081Y019668D01*
X009065Y019675D01*
X009048Y019679D01*
X009031Y019681D01*
X007331Y019681D01*
X007314Y019679D01*
X007297Y019675D01*
X007281Y019668D01*
X007267Y019658D01*
X007254Y019645D01*
X007244Y019631D01*
X007237Y019615D01*
X007233Y019598D01*
X007231Y019581D01*
X007231Y018781D01*
X007233Y018764D01*
X007237Y018747D01*
X007244Y018731D01*
X007254Y018717D01*
X007267Y018704D01*
X007281Y018694D01*
X007297Y018687D01*
X007314Y018683D01*
X007331Y018681D01*
X009031Y018681D01*
X009048Y018683D01*
X009065Y018687D01*
X009081Y018694D01*
X009095Y018704D01*
X009108Y018717D01*
X009118Y018731D01*
X009125Y018747D01*
X009129Y018764D01*
X009131Y018781D01*
X008331Y019181D02*
X008281Y019181D01*
X008081Y019181D02*
X008031Y019181D01*
X006881Y019081D02*
X006881Y015281D01*
X006781Y015181D01*
X005631Y015181D01*
X006881Y019081D02*
X006781Y019181D01*
X005631Y019181D01*
X016281Y008681D02*
X016279Y008636D01*
X016274Y008590D01*
X016266Y008546D01*
X016254Y008502D01*
X016238Y008459D01*
X016220Y008417D01*
X016198Y008377D01*
X016174Y008339D01*
X016147Y008303D01*
X016117Y008268D01*
X016084Y008237D01*
X016049Y008207D01*
X016281Y008681D02*
X016279Y008726D01*
X016274Y008772D01*
X016266Y008816D01*
X016254Y008860D01*
X016238Y008903D01*
X016220Y008945D01*
X016198Y008985D01*
X016174Y009023D01*
X016147Y009059D01*
X016117Y009094D01*
X016084Y009125D01*
X016049Y009155D01*
X015081Y008681D02*
X015083Y008635D01*
X015088Y008589D01*
X015097Y008543D01*
X015109Y008498D01*
X015125Y008455D01*
X015144Y008413D01*
X015167Y008372D01*
X015192Y008333D01*
X015220Y008297D01*
X015251Y008262D01*
X015285Y008230D01*
X015321Y008201D01*
X015081Y008681D02*
X015083Y008728D01*
X015089Y008776D01*
X015098Y008822D01*
X015111Y008868D01*
X015127Y008912D01*
X015147Y008956D01*
X015171Y008997D01*
X015197Y009036D01*
X015227Y009073D01*
X015260Y009108D01*
X015295Y009140D01*
X015332Y009169D01*
X016731Y007831D02*
X016731Y007681D01*
X016781Y007631D01*
X016781Y005731D01*
X016731Y005681D01*
X016731Y005531D01*
X016733Y005514D01*
X016737Y005497D01*
X016744Y005481D01*
X016754Y005467D01*
X016767Y005454D01*
X016781Y005444D01*
X016797Y005437D01*
X016814Y005433D01*
X016831Y005431D01*
X017531Y005431D01*
X017548Y005433D01*
X017565Y005437D01*
X017581Y005444D01*
X017595Y005454D01*
X017608Y005467D01*
X017618Y005481D01*
X017625Y005497D01*
X017629Y005514D01*
X017631Y005531D01*
X017631Y005681D01*
X017581Y005731D01*
X017581Y007631D01*
X017631Y007681D01*
X017631Y007831D01*
X017629Y007848D01*
X017625Y007865D01*
X017618Y007881D01*
X017608Y007895D01*
X017595Y007908D01*
X017581Y007918D01*
X017565Y007925D01*
X017548Y007929D01*
X017531Y007931D01*
X016831Y007931D01*
X016814Y007929D01*
X016797Y007925D01*
X016781Y007918D01*
X016767Y007908D01*
X016754Y007895D01*
X016744Y007881D01*
X016737Y007865D01*
X016733Y007848D01*
X016731Y007831D01*
X016031Y005931D02*
X015331Y005931D01*
X015314Y005929D01*
X015297Y005925D01*
X015281Y005918D01*
X015267Y005908D01*
X015254Y005895D01*
X015244Y005881D01*
X015237Y005865D01*
X015233Y005848D01*
X015231Y005831D01*
X015231Y005681D01*
X015281Y005631D01*
X015281Y003731D01*
X015231Y003681D01*
X015231Y003531D01*
X015233Y003514D01*
X015237Y003497D01*
X015244Y003481D01*
X015254Y003467D01*
X015267Y003454D01*
X015281Y003444D01*
X015297Y003437D01*
X015314Y003433D01*
X015331Y003431D01*
X016031Y003431D01*
X016048Y003433D01*
X016065Y003437D01*
X016081Y003444D01*
X016095Y003454D01*
X016108Y003467D01*
X016118Y003481D01*
X016125Y003497D01*
X016129Y003514D01*
X016131Y003531D01*
X016131Y003681D01*
X016081Y003731D01*
X016081Y005631D01*
X016131Y005681D01*
X016131Y005831D01*
X016129Y005848D01*
X016125Y005865D01*
X016118Y005881D01*
X016108Y005895D01*
X016095Y005908D01*
X016081Y005918D01*
X016065Y005925D01*
X016048Y005929D01*
X016031Y005931D01*
X016813Y003655D02*
X016778Y003625D01*
X016745Y003594D01*
X016715Y003559D01*
X016688Y003523D01*
X016664Y003485D01*
X016642Y003445D01*
X016624Y003403D01*
X016608Y003360D01*
X016596Y003316D01*
X016588Y003272D01*
X016583Y003226D01*
X016581Y003181D01*
X016583Y003136D01*
X016588Y003090D01*
X016596Y003046D01*
X016608Y003002D01*
X016624Y002959D01*
X016642Y002917D01*
X016664Y002877D01*
X016688Y002839D01*
X016715Y002803D01*
X016745Y002768D01*
X016778Y002737D01*
X016813Y002707D01*
X017781Y003181D02*
X017779Y003227D01*
X017774Y003273D01*
X017765Y003319D01*
X017753Y003364D01*
X017737Y003407D01*
X017718Y003449D01*
X017695Y003490D01*
X017670Y003529D01*
X017642Y003565D01*
X017611Y003600D01*
X017577Y003632D01*
X017541Y003661D01*
X017781Y003181D02*
X017779Y003134D01*
X017773Y003086D01*
X017764Y003040D01*
X017751Y002994D01*
X017735Y002950D01*
X017715Y002906D01*
X017691Y002865D01*
X017665Y002826D01*
X017635Y002789D01*
X017602Y002754D01*
X017567Y002722D01*
X017530Y002693D01*
X007631Y003081D02*
X007631Y002281D01*
X007629Y002264D01*
X007625Y002247D01*
X007618Y002231D01*
X007608Y002217D01*
X007595Y002204D01*
X007581Y002194D01*
X007565Y002187D01*
X007548Y002183D01*
X007531Y002181D01*
X005831Y002181D01*
X005814Y002183D01*
X005797Y002187D01*
X005781Y002194D01*
X005767Y002204D01*
X005754Y002217D01*
X005744Y002231D01*
X005737Y002247D01*
X005733Y002264D01*
X005731Y002281D01*
X005731Y003081D01*
X005733Y003098D01*
X005737Y003115D01*
X005744Y003131D01*
X005754Y003145D01*
X005767Y003158D01*
X005781Y003168D01*
X005797Y003175D01*
X005814Y003179D01*
X005831Y003181D01*
X007531Y003181D01*
X007548Y003179D01*
X007565Y003175D01*
X007581Y003168D01*
X007595Y003158D01*
X007608Y003145D01*
X007618Y003131D01*
X007625Y003115D01*
X007629Y003098D01*
X007631Y003081D01*
X006831Y002681D02*
X006781Y002681D01*
X006581Y002681D02*
X006531Y002681D01*
D14*
X006931Y004181D02*
X005431Y004181D01*
X005431Y008181D01*
X006931Y008181D01*
X006931Y004181D01*
X009956Y004804D02*
X009956Y005029D01*
X010031Y005104D01*
X010181Y005104D01*
X010256Y005029D01*
X010256Y004804D01*
X010406Y004804D02*
X009956Y004804D01*
X009956Y005264D02*
X009956Y005414D01*
X009956Y005339D02*
X010406Y005339D01*
X010406Y005264D02*
X010406Y005414D01*
X010331Y005571D02*
X010406Y005646D01*
X010406Y005796D01*
X010331Y005871D01*
X010331Y006032D02*
X010406Y006107D01*
X010406Y006257D01*
X010331Y006332D01*
X010256Y006332D01*
X010181Y006257D01*
X010181Y006182D01*
X010181Y006257D02*
X010106Y006332D01*
X010031Y006332D01*
X009956Y006257D01*
X009956Y006107D01*
X010031Y006032D01*
X010031Y005871D02*
X009956Y005796D01*
X009956Y005646D01*
X010031Y005571D01*
X010331Y005571D01*
X010406Y006492D02*
X010106Y006792D01*
X010031Y006792D01*
X009956Y006717D01*
X009956Y006567D01*
X010031Y006492D01*
X010406Y006492D02*
X010406Y006792D01*
X010406Y006952D02*
X009956Y006952D01*
X010106Y007102D01*
X009956Y007253D01*
X010406Y007253D01*
X010406Y007413D02*
X009956Y007713D01*
X010031Y007873D02*
X009956Y007948D01*
X009956Y008098D01*
X010031Y008173D01*
X010106Y008173D01*
X010406Y007873D01*
X010406Y008173D01*
X010331Y008333D02*
X010406Y008408D01*
X010406Y008559D01*
X010331Y008634D01*
X010181Y008634D01*
X010106Y008559D01*
X010106Y008484D01*
X010181Y008333D01*
X009956Y008333D01*
X009956Y008634D01*
X010031Y008794D02*
X009956Y008869D01*
X009956Y009019D01*
X010031Y009094D01*
X010331Y008794D01*
X010406Y008869D01*
X010406Y009019D01*
X010331Y009094D01*
X010031Y009094D01*
X009956Y009254D02*
X009956Y009554D01*
X010106Y009714D02*
X009956Y009865D01*
X010406Y009865D01*
X010406Y010015D02*
X010406Y009714D01*
X010181Y009404D02*
X010181Y009254D01*
X010406Y009254D02*
X009956Y009254D01*
X010031Y008794D02*
X010331Y008794D01*
X010406Y007713D02*
X009956Y007413D01*
X010031Y010175D02*
X009956Y010250D01*
X009956Y010400D01*
X010031Y010475D01*
X010106Y010475D01*
X010406Y010175D01*
X010406Y010475D01*
X010331Y010635D02*
X010256Y010635D01*
X010181Y010710D01*
X010181Y010860D01*
X010256Y010935D01*
X010331Y010935D01*
X010406Y010860D01*
X010406Y010710D01*
X010331Y010635D01*
X010181Y010710D02*
X010106Y010635D01*
X010031Y010635D01*
X009956Y010710D01*
X009956Y010860D01*
X010031Y010935D01*
X010106Y010935D01*
X010181Y010860D01*
X010181Y011096D02*
X010181Y011321D01*
X010256Y011396D01*
X010331Y011396D01*
X010406Y011321D01*
X010406Y011096D01*
X009956Y011096D01*
X009956Y011321D01*
X010031Y011396D01*
X010106Y011396D01*
X010181Y011321D01*
X013391Y015956D02*
X013316Y016031D01*
X013391Y015956D02*
X013542Y015956D01*
X013617Y016031D01*
X013617Y016107D01*
X013542Y016182D01*
X013467Y016182D01*
X013542Y016182D02*
X013617Y016257D01*
X013617Y016332D01*
X013542Y016407D01*
X013391Y016407D01*
X013316Y016332D01*
X013777Y016332D02*
X013852Y016407D01*
X014002Y016407D01*
X014077Y016332D01*
X014077Y016257D01*
X014002Y016182D01*
X014077Y016107D01*
X014077Y016031D01*
X014002Y015956D01*
X013852Y015956D01*
X013777Y016031D01*
X013927Y016182D02*
X014002Y016182D01*
X014237Y016332D02*
X014237Y016031D01*
X014537Y016332D01*
X014537Y016031D01*
X014462Y015956D01*
X014312Y015956D01*
X014237Y016031D01*
X014237Y016332D02*
X014312Y016407D01*
X014462Y016407D01*
X014537Y016332D01*
X015681Y018181D02*
X012681Y018181D01*
X012681Y019181D01*
X015681Y019181D01*
X015681Y018181D01*
X016181Y018181D02*
X016181Y019181D01*
X019181Y019181D01*
X019181Y018181D01*
X016181Y018181D01*
X017106Y015438D02*
X017256Y015213D01*
X017406Y015438D01*
X017406Y015213D02*
X016956Y015213D01*
X017031Y015053D02*
X017331Y014752D01*
X017406Y014827D01*
X017406Y014978D01*
X017331Y015053D01*
X017031Y015053D01*
X016956Y014978D01*
X016956Y014827D01*
X017031Y014752D01*
X017331Y014752D01*
X017406Y014592D02*
X017406Y014292D01*
X017406Y014442D02*
X016956Y014442D01*
X017106Y014292D01*
X018456Y014442D02*
X018906Y014442D01*
X018906Y014292D02*
X018906Y014592D01*
X018831Y014752D02*
X018531Y015053D01*
X018831Y015053D01*
X018906Y014978D01*
X018906Y014827D01*
X018831Y014752D01*
X018531Y014752D01*
X018456Y014827D01*
X018456Y014978D01*
X018531Y015053D01*
X018456Y015213D02*
X018906Y015213D01*
X018756Y015213D02*
X018606Y015438D01*
X018756Y015213D02*
X018906Y015438D01*
X018456Y014442D02*
X018606Y014292D01*
X017331Y007037D02*
X017031Y007037D01*
X017331Y006737D01*
X017406Y006812D01*
X017406Y006962D01*
X017331Y007037D01*
X017331Y006737D02*
X017031Y006737D01*
X016956Y006812D01*
X016956Y006962D01*
X017031Y007037D01*
X017031Y006577D02*
X017106Y006577D01*
X017181Y006502D01*
X017256Y006577D01*
X017331Y006577D01*
X017406Y006502D01*
X017406Y006352D01*
X017331Y006277D01*
X017331Y006117D02*
X017256Y006117D01*
X017181Y006042D01*
X017181Y005967D01*
X017181Y006042D02*
X017106Y006117D01*
X017031Y006117D01*
X016956Y006042D01*
X016956Y005891D01*
X017031Y005816D01*
X017331Y005816D02*
X017406Y005891D01*
X017406Y006042D01*
X017331Y006117D01*
X017031Y006277D02*
X016956Y006352D01*
X016956Y006502D01*
X017031Y006577D01*
X017181Y006502D02*
X017181Y006427D01*
X008918Y018106D02*
X008918Y018557D01*
X009218Y018557D01*
X009068Y018332D02*
X008918Y018332D01*
X008758Y018407D02*
X008758Y018106D01*
X008532Y018106D01*
X008457Y018181D01*
X008457Y018407D01*
X008147Y018557D02*
X008147Y018106D01*
X007997Y018106D02*
X008297Y018106D01*
X007997Y018407D02*
X008147Y018557D01*
X007842Y018181D02*
X007842Y018106D01*
X007767Y018106D01*
X007767Y018181D01*
X007842Y018181D01*
X007607Y018181D02*
X007607Y018482D01*
X007306Y018181D01*
X007381Y018106D01*
X007532Y018106D01*
X007607Y018181D01*
X007607Y018482D02*
X007532Y018557D01*
X007381Y018557D01*
X007306Y018482D01*
X007306Y018181D01*
D15*
X017181Y016101D03*
X018681Y016101D03*
X018681Y013261D03*
X017181Y013261D03*
X017181Y008101D03*
X015681Y006101D03*
X017181Y005261D03*
X015681Y003261D03*
D16*
X016381Y003181D02*
X016383Y003237D01*
X016389Y003293D01*
X016399Y003348D01*
X016412Y003402D01*
X016430Y003456D01*
X016451Y003508D01*
X016475Y003558D01*
X016504Y003607D01*
X016535Y003653D01*
X016570Y003697D01*
X016607Y003739D01*
X016648Y003777D01*
X016691Y003813D01*
X016736Y003846D01*
X016784Y003876D01*
X016381Y003181D02*
X016383Y003128D01*
X016388Y003074D01*
X016397Y003022D01*
X016409Y002970D01*
X016425Y002919D01*
X016444Y002869D01*
X016467Y002820D01*
X016493Y002773D01*
X016521Y002728D01*
X016553Y002685D01*
X016587Y002645D01*
X016625Y002606D01*
X016664Y002570D01*
X017981Y003181D02*
X017979Y003235D01*
X017974Y003289D01*
X017965Y003342D01*
X017952Y003395D01*
X017936Y003446D01*
X017916Y003496D01*
X017893Y003545D01*
X017867Y003593D01*
X017838Y003638D01*
X017805Y003681D01*
X017770Y003722D01*
X017732Y003761D01*
X017692Y003797D01*
X017649Y003830D01*
X017604Y003860D01*
X017557Y003887D01*
X017981Y003181D02*
X017979Y003127D01*
X017974Y003074D01*
X017965Y003020D01*
X017952Y002968D01*
X017936Y002917D01*
X017916Y002866D01*
X017894Y002817D01*
X017868Y002770D01*
X017838Y002725D01*
X017806Y002682D01*
X017771Y002641D01*
X017733Y002602D01*
X017693Y002566D01*
X016078Y007986D02*
X016126Y008016D01*
X016171Y008049D01*
X016214Y008085D01*
X016255Y008123D01*
X016292Y008165D01*
X016327Y008209D01*
X016358Y008255D01*
X016387Y008304D01*
X016411Y008354D01*
X016432Y008406D01*
X016450Y008460D01*
X016463Y008514D01*
X016473Y008569D01*
X016479Y008625D01*
X016481Y008681D01*
X016479Y008734D01*
X016474Y008788D01*
X016465Y008840D01*
X016453Y008892D01*
X016437Y008943D01*
X016418Y008993D01*
X016395Y009042D01*
X016369Y009089D01*
X016341Y009134D01*
X016309Y009177D01*
X016275Y009217D01*
X016237Y009256D01*
X016198Y009292D01*
X014881Y008681D02*
X014883Y008627D01*
X014888Y008573D01*
X014897Y008520D01*
X014910Y008467D01*
X014926Y008416D01*
X014946Y008366D01*
X014969Y008317D01*
X014995Y008269D01*
X015024Y008224D01*
X015057Y008181D01*
X015092Y008140D01*
X015130Y008101D01*
X015170Y008065D01*
X015213Y008032D01*
X015258Y008002D01*
X015305Y007975D01*
X014881Y008681D02*
X014883Y008735D01*
X014888Y008788D01*
X014897Y008842D01*
X014910Y008894D01*
X014926Y008945D01*
X014946Y008996D01*
X014968Y009045D01*
X014994Y009092D01*
X015024Y009137D01*
X015056Y009180D01*
X015091Y009221D01*
X015129Y009260D01*
X015169Y009296D01*
X013481Y014081D02*
X013181Y014081D01*
X012881Y014081D01*
X012881Y014281D02*
X013181Y014281D01*
X013481Y014281D01*
X009981Y016581D02*
X009681Y016581D01*
X009381Y016581D01*
X009381Y016781D02*
X009681Y016781D01*
X009981Y016781D01*
X011578Y017486D02*
X011626Y017516D01*
X011671Y017549D01*
X011714Y017585D01*
X011755Y017623D01*
X011792Y017665D01*
X011827Y017709D01*
X011858Y017755D01*
X011887Y017804D01*
X011911Y017854D01*
X011932Y017906D01*
X011950Y017960D01*
X011963Y018014D01*
X011973Y018069D01*
X011979Y018125D01*
X011981Y018181D01*
X011979Y018234D01*
X011974Y018288D01*
X011965Y018340D01*
X011953Y018392D01*
X011937Y018443D01*
X011918Y018493D01*
X011895Y018542D01*
X011869Y018589D01*
X011841Y018634D01*
X011809Y018677D01*
X011775Y018717D01*
X011737Y018756D01*
X011698Y018792D01*
X010381Y018181D02*
X010383Y018127D01*
X010388Y018073D01*
X010397Y018020D01*
X010410Y017967D01*
X010426Y017916D01*
X010446Y017866D01*
X010469Y017817D01*
X010495Y017769D01*
X010524Y017724D01*
X010557Y017681D01*
X010592Y017640D01*
X010630Y017601D01*
X010670Y017565D01*
X010713Y017532D01*
X010758Y017502D01*
X010805Y017475D01*
X010381Y018181D02*
X010383Y018235D01*
X010388Y018288D01*
X010397Y018342D01*
X010410Y018394D01*
X010426Y018445D01*
X010446Y018496D01*
X010468Y018545D01*
X010494Y018592D01*
X010524Y018637D01*
X010556Y018680D01*
X010591Y018721D01*
X010629Y018760D01*
X010669Y018796D01*
X008281Y018881D02*
X008281Y019181D01*
X008281Y019481D01*
X008081Y019481D02*
X008081Y019181D01*
X008081Y018881D01*
X006781Y002981D02*
X006781Y002681D01*
X006781Y002381D01*
X006581Y002381D02*
X006581Y002681D01*
X006581Y002981D01*
D17*
X006431Y001681D02*
X005931Y001681D01*
X005681Y001431D01*
X005431Y001681D01*
X004931Y001681D01*
X004681Y001431D01*
X004431Y001681D01*
X003931Y001681D01*
X003681Y001431D01*
X003431Y001681D01*
X002931Y001681D01*
X002681Y001431D01*
X002681Y000931D01*
X002931Y000681D01*
X003431Y000681D01*
X003681Y000931D01*
X003931Y000681D01*
X004431Y000681D01*
X004681Y000931D01*
X004931Y000681D01*
X005431Y000681D01*
X005681Y000931D01*
X005931Y000681D01*
X006431Y000681D01*
X006681Y000931D01*
X006931Y000681D01*
X007431Y000681D01*
X007681Y000931D01*
X007681Y001431D01*
X007431Y001681D01*
X006931Y001681D01*
X006681Y001431D01*
X006431Y001681D01*
X001181Y001431D02*
X001181Y000931D01*
X000931Y000681D01*
X000431Y000681D01*
X000181Y000931D01*
X000181Y001431D01*
X000431Y001681D01*
X000181Y001931D01*
X000181Y002431D01*
X000431Y002681D01*
X000181Y002931D01*
X000181Y003431D01*
X000431Y003681D01*
X000181Y003931D01*
X000181Y004431D01*
X000431Y004681D01*
X000931Y004681D01*
X001181Y004431D01*
X001181Y003931D01*
X000931Y003681D01*
X001181Y003431D01*
X001181Y002931D01*
X000931Y002681D01*
X001181Y002431D01*
X001181Y001931D01*
X000931Y001681D01*
X001181Y001431D01*
X000931Y005681D02*
X000431Y005681D01*
X000181Y005931D01*
X000181Y006431D01*
X000431Y006681D01*
X000181Y006931D01*
X000181Y007431D01*
X000431Y007681D01*
X000181Y007931D01*
X000181Y008431D01*
X000431Y008681D01*
X000181Y008931D01*
X000181Y009431D01*
X000431Y009681D01*
X000931Y009681D01*
X001181Y009431D01*
X001181Y008931D01*
X000931Y008681D01*
X001181Y008431D01*
X001181Y007931D01*
X000931Y007681D01*
X001181Y007431D01*
X001181Y006931D01*
X000931Y006681D01*
X001181Y006431D01*
X001181Y005931D01*
X000931Y005681D01*
X000931Y010681D02*
X000431Y010681D01*
X000181Y010931D01*
X000181Y011431D01*
X000431Y011681D01*
X000181Y011931D01*
X000181Y012431D01*
X000431Y012681D01*
X000181Y012931D01*
X000181Y013431D01*
X000431Y013681D01*
X000181Y013931D01*
X000181Y014431D01*
X000431Y014681D01*
X000931Y014681D01*
X001181Y014431D01*
X001181Y013931D01*
X000931Y013681D01*
X001181Y013431D01*
X001181Y012931D01*
X000931Y012681D01*
X001181Y012431D01*
X001181Y011931D01*
X000931Y011681D01*
X001181Y011431D01*
X001181Y010931D01*
X000931Y010681D01*
X007631Y015981D02*
X007631Y016381D01*
X007197Y016681D02*
X007199Y016743D01*
X007205Y016806D01*
X007215Y016867D01*
X007229Y016928D01*
X007246Y016988D01*
X007267Y017047D01*
X007293Y017104D01*
X007321Y017159D01*
X007353Y017213D01*
X007389Y017264D01*
X007427Y017314D01*
X007469Y017360D01*
X007513Y017404D01*
X007561Y017445D01*
X007610Y017483D01*
X007662Y017517D01*
X007716Y017548D01*
X007772Y017576D01*
X007830Y017600D01*
X007889Y017621D01*
X007949Y017637D01*
X008010Y017650D01*
X008072Y017659D01*
X008134Y017664D01*
X008197Y017665D01*
X008259Y017662D01*
X008321Y017655D01*
X008383Y017644D01*
X008443Y017629D01*
X008503Y017611D01*
X008561Y017589D01*
X008618Y017563D01*
X008673Y017533D01*
X008726Y017500D01*
X008777Y017464D01*
X008825Y017425D01*
X008871Y017382D01*
X008914Y017337D01*
X008954Y017289D01*
X008991Y017239D01*
X009025Y017186D01*
X009056Y017132D01*
X009082Y017076D01*
X009106Y017018D01*
X009125Y016958D01*
X009141Y016898D01*
X009153Y016836D01*
X009161Y016775D01*
X009165Y016712D01*
X009165Y016650D01*
X009161Y016587D01*
X009153Y016526D01*
X009141Y016464D01*
X009125Y016404D01*
X009106Y016344D01*
X009082Y016286D01*
X009056Y016230D01*
X009025Y016176D01*
X008991Y016123D01*
X008954Y016073D01*
X008914Y016025D01*
X008871Y015980D01*
X008825Y015937D01*
X008777Y015898D01*
X008726Y015862D01*
X008673Y015829D01*
X008618Y015799D01*
X008561Y015773D01*
X008503Y015751D01*
X008443Y015733D01*
X008383Y015718D01*
X008321Y015707D01*
X008259Y015700D01*
X008197Y015697D01*
X008134Y015698D01*
X008072Y015703D01*
X008010Y015712D01*
X007949Y015725D01*
X007889Y015741D01*
X007830Y015762D01*
X007772Y015786D01*
X007716Y015814D01*
X007662Y015845D01*
X007610Y015879D01*
X007561Y015917D01*
X007513Y015958D01*
X007469Y016002D01*
X007427Y016048D01*
X007389Y016098D01*
X007353Y016149D01*
X007321Y016203D01*
X007293Y016258D01*
X007267Y016315D01*
X007246Y016374D01*
X007229Y016434D01*
X007215Y016495D01*
X007205Y016556D01*
X007199Y016619D01*
X007197Y016681D01*
X013197Y006181D02*
X013199Y006243D01*
X013205Y006306D01*
X013215Y006367D01*
X013229Y006428D01*
X013246Y006488D01*
X013267Y006547D01*
X013293Y006604D01*
X013321Y006659D01*
X013353Y006713D01*
X013389Y006764D01*
X013427Y006814D01*
X013469Y006860D01*
X013513Y006904D01*
X013561Y006945D01*
X013610Y006983D01*
X013662Y007017D01*
X013716Y007048D01*
X013772Y007076D01*
X013830Y007100D01*
X013889Y007121D01*
X013949Y007137D01*
X014010Y007150D01*
X014072Y007159D01*
X014134Y007164D01*
X014197Y007165D01*
X014259Y007162D01*
X014321Y007155D01*
X014383Y007144D01*
X014443Y007129D01*
X014503Y007111D01*
X014561Y007089D01*
X014618Y007063D01*
X014673Y007033D01*
X014726Y007000D01*
X014777Y006964D01*
X014825Y006925D01*
X014871Y006882D01*
X014914Y006837D01*
X014954Y006789D01*
X014991Y006739D01*
X015025Y006686D01*
X015056Y006632D01*
X015082Y006576D01*
X015106Y006518D01*
X015125Y006458D01*
X015141Y006398D01*
X015153Y006336D01*
X015161Y006275D01*
X015165Y006212D01*
X015165Y006150D01*
X015161Y006087D01*
X015153Y006026D01*
X015141Y005964D01*
X015125Y005904D01*
X015106Y005844D01*
X015082Y005786D01*
X015056Y005730D01*
X015025Y005676D01*
X014991Y005623D01*
X014954Y005573D01*
X014914Y005525D01*
X014871Y005480D01*
X014825Y005437D01*
X014777Y005398D01*
X014726Y005362D01*
X014673Y005329D01*
X014618Y005299D01*
X014561Y005273D01*
X014503Y005251D01*
X014443Y005233D01*
X014383Y005218D01*
X014321Y005207D01*
X014259Y005200D01*
X014197Y005197D01*
X014134Y005198D01*
X014072Y005203D01*
X014010Y005212D01*
X013949Y005225D01*
X013889Y005241D01*
X013830Y005262D01*
X013772Y005286D01*
X013716Y005314D01*
X013662Y005345D01*
X013610Y005379D01*
X013561Y005417D01*
X013513Y005458D01*
X013469Y005502D01*
X013427Y005548D01*
X013389Y005598D01*
X013353Y005649D01*
X013321Y005703D01*
X013293Y005758D01*
X013267Y005815D01*
X013246Y005874D01*
X013229Y005934D01*
X013215Y005995D01*
X013205Y006056D01*
X013199Y006119D01*
X013197Y006181D01*
X013631Y005881D02*
X013631Y005481D01*
X018681Y005931D02*
X018681Y006431D01*
X018931Y006681D01*
X018681Y006931D01*
X018681Y007431D01*
X018931Y007681D01*
X018681Y007931D01*
X018681Y008431D01*
X018931Y008681D01*
X018681Y008931D01*
X018681Y009431D01*
X018931Y009681D01*
X019431Y009681D01*
X019681Y009431D01*
X019681Y008931D01*
X019431Y008681D01*
X019681Y008431D01*
X019681Y007931D01*
X019431Y007681D01*
X019681Y007431D01*
X019681Y006931D01*
X019431Y006681D01*
X019681Y006431D01*
X019681Y005931D01*
X019431Y005681D01*
X018931Y005681D01*
X018681Y005931D01*
X018931Y004681D02*
X018681Y004431D01*
X018681Y003931D01*
X018931Y003681D01*
X018681Y003431D01*
X018681Y002931D01*
X018931Y002681D01*
X018681Y002431D01*
X018681Y001931D01*
X018931Y001681D01*
X018681Y001431D01*
X018681Y000931D01*
X018931Y000681D01*
X019431Y000681D01*
X019681Y000931D01*
X019681Y001431D01*
X019431Y001681D01*
X019681Y001931D01*
X019681Y002431D01*
X019431Y002681D01*
X019681Y002931D01*
X019681Y003431D01*
X019431Y003681D01*
X019681Y003931D01*
X019681Y004431D01*
X019431Y004681D01*
X018931Y004681D01*
D18*
X006641Y015361D03*
D19*
X005431Y015456D03*
X005431Y018906D03*
D20*
X005331Y018181D03*
X005331Y017181D03*
X005331Y016181D03*
D21*
X005431Y016681D03*
X005431Y017681D03*
D22*
X012761Y016181D03*
X015601Y016181D03*
M02*
