G75*
G70*
%OFA0B0*%
%FSLAX24Y24*%
%IPPOS*%
%LPD*%
%AMOC8*
5,1,8,0,0,1.08239X$1,22.5*
%
%ADD10C,0.0000*%
%ADD11C,0.0520*%
%ADD12C,0.0515*%
%ADD13OC8,0.0520*%
%ADD14R,0.0515X0.0515*%
%ADD15R,0.0650X0.0650*%
%ADD16C,0.0650*%
%ADD17R,0.0740X0.0740*%
%ADD18C,0.0740*%
%ADD19C,0.0600*%
%ADD20C,0.1122*%
%ADD21C,0.0160*%
%ADD22R,0.0396X0.0396*%
%ADD23C,0.0357*%
D10*
X000181Y000181D02*
X000181Y019866D01*
X019866Y019866D01*
X019866Y000181D01*
X000181Y000181D01*
D11*
X008421Y001681D02*
X008941Y001681D01*
X008941Y002681D02*
X008421Y002681D01*
X008421Y003681D02*
X008941Y003681D01*
X008941Y004681D02*
X008421Y004681D01*
X008421Y005681D02*
X008941Y005681D01*
X008941Y006681D02*
X008421Y006681D01*
X008421Y007681D02*
X008941Y007681D01*
X008941Y008681D02*
X008421Y008681D01*
X008421Y009681D02*
X008941Y009681D01*
X008941Y010681D02*
X008421Y010681D01*
X008421Y011681D02*
X008941Y011681D01*
X008941Y012681D02*
X008421Y012681D01*
X008421Y013681D02*
X008941Y013681D01*
X008941Y014681D02*
X008421Y014681D01*
X011421Y014681D02*
X011941Y014681D01*
X011941Y013681D02*
X011421Y013681D01*
X011421Y012681D02*
X011941Y012681D01*
X011941Y011681D02*
X011421Y011681D01*
X011421Y010681D02*
X011941Y010681D01*
X011941Y009681D02*
X011421Y009681D01*
X011421Y008681D02*
X011941Y008681D01*
X011941Y007681D02*
X011421Y007681D01*
X011421Y006681D02*
X011941Y006681D01*
X011941Y005681D02*
X011421Y005681D01*
X011421Y004681D02*
X011941Y004681D01*
X011941Y003681D02*
X011421Y003681D01*
X011421Y002681D02*
X011941Y002681D01*
X011941Y001681D02*
X011421Y001681D01*
D12*
X006181Y005181D03*
X006181Y006181D03*
X003351Y016081D03*
X002681Y016081D03*
X002351Y016701D03*
X003041Y016701D03*
X001981Y016081D03*
X013181Y018681D03*
X015181Y018681D03*
X016681Y018681D03*
X018681Y018681D03*
D13*
X018681Y016681D03*
X017181Y016681D03*
X016181Y016181D03*
X013181Y014681D03*
X013181Y013681D03*
X012181Y016181D03*
X011181Y017681D03*
X011181Y018681D03*
X009681Y017181D03*
X009681Y016181D03*
X008681Y019181D03*
X007681Y019181D03*
X017181Y012681D03*
X018681Y012681D03*
X015681Y009181D03*
X015681Y008181D03*
X015681Y006681D03*
X017181Y004681D03*
X017181Y003681D03*
X017181Y002681D03*
X015681Y002681D03*
X017181Y008681D03*
X007181Y002681D03*
X006181Y002681D03*
D14*
X006181Y007181D03*
D15*
X014181Y006681D03*
X008181Y017181D03*
D16*
X008181Y016181D03*
X014181Y005681D03*
D17*
X019181Y004181D03*
X019181Y009181D03*
X007181Y001181D03*
X000681Y004181D03*
X000681Y009181D03*
X000681Y014181D03*
D18*
X000681Y013181D03*
X000681Y012181D03*
X000681Y011181D03*
X000681Y008181D03*
X000681Y007181D03*
X000681Y006181D03*
X000681Y003181D03*
X000681Y002181D03*
X000681Y001181D03*
X003181Y001181D03*
X004181Y001181D03*
X005181Y001181D03*
X006181Y001181D03*
X019181Y001181D03*
X019181Y002181D03*
X019181Y003181D03*
X019181Y006181D03*
X019181Y007181D03*
X019181Y008181D03*
D19*
X006481Y016181D02*
X005881Y016181D01*
X005881Y017181D02*
X006481Y017181D01*
X006481Y018181D02*
X005881Y018181D01*
D20*
X004118Y018181D03*
X001244Y018181D03*
D21*
X003351Y016081D02*
X003376Y016056D01*
X004931Y016056D01*
X005181Y016306D01*
X005181Y017681D01*
X005681Y018181D01*
X006181Y018181D01*
X007181Y019181D01*
X007681Y019181D01*
X008181Y017181D02*
X006181Y017181D01*
X008181Y017181D02*
X009681Y017181D01*
X010681Y017181D01*
X011681Y016181D01*
X011681Y014681D01*
X009681Y014681D01*
X009431Y014431D01*
X009431Y010681D01*
X009431Y003056D01*
X009056Y002681D01*
X008681Y002681D01*
X007181Y002681D01*
X007681Y003181D02*
X002681Y003181D01*
X001681Y004181D01*
X000681Y004181D01*
X000681Y003181D02*
X001681Y003181D01*
X002681Y002181D01*
X007681Y002181D01*
X008181Y001681D01*
X008681Y001681D01*
X009681Y001181D02*
X010181Y001681D01*
X010181Y014181D01*
X008681Y013681D02*
X003181Y013681D01*
X002681Y013181D01*
X000681Y013181D01*
X000681Y012181D02*
X002681Y012181D01*
X003181Y012681D01*
X008681Y012681D01*
X008681Y011681D02*
X003181Y011681D01*
X002681Y011181D01*
X002181Y011181D01*
X000681Y011181D01*
X000681Y009181D02*
X001681Y009181D01*
X003181Y010681D01*
X008681Y010681D01*
X008681Y009681D02*
X003681Y009681D01*
X002181Y008181D01*
X000681Y008181D01*
X000681Y007181D02*
X002681Y007181D01*
X004181Y008681D01*
X008681Y008681D01*
X007181Y007181D02*
X007681Y006681D01*
X008681Y006681D01*
X008681Y005681D02*
X007681Y005681D01*
X007181Y005181D01*
X006181Y005181D01*
X005181Y003681D02*
X002681Y006181D01*
X000681Y006181D01*
X005181Y003681D02*
X007181Y003681D01*
X008181Y004681D01*
X008681Y004681D01*
X008681Y003681D02*
X008181Y003681D01*
X007681Y003181D01*
X007181Y001181D02*
X009681Y001181D01*
X010681Y002181D02*
X011181Y001681D01*
X011681Y001681D01*
X012181Y001181D01*
X019181Y001181D01*
X017681Y001681D02*
X019181Y003181D01*
X019181Y004181D02*
X014681Y004181D01*
X014181Y003681D01*
X011681Y003681D01*
X011681Y002681D02*
X015681Y002681D01*
X016681Y001681D01*
X017681Y001681D01*
X015181Y004681D02*
X016681Y006181D01*
X019181Y006181D01*
X019181Y007181D02*
X018681Y007181D01*
X018181Y007681D01*
X018181Y008681D01*
X016181Y010681D01*
X011681Y010681D01*
X011681Y011681D02*
X015681Y011681D01*
X019181Y008181D01*
X019181Y009181D02*
X015681Y012681D01*
X011681Y012681D01*
X011681Y014681D02*
X013181Y014681D01*
X014181Y014681D01*
X015181Y014681D01*
X016181Y015681D01*
X016181Y016181D01*
X017181Y016681D02*
X017181Y017181D01*
X015681Y018681D01*
X015181Y018681D01*
X012181Y016181D02*
X011181Y017181D01*
X011181Y017681D01*
X008681Y014681D02*
X003181Y014681D01*
X002681Y014181D01*
X000681Y014181D01*
X006181Y007181D02*
X007181Y007181D01*
X010681Y009681D02*
X010681Y002181D01*
X011681Y004681D02*
X015181Y004681D01*
X014181Y006681D02*
X011681Y006681D01*
X017181Y012681D02*
X018681Y012681D01*
X017181Y012681D02*
X015181Y014681D01*
X018681Y016681D02*
X018681Y018681D01*
D22*
X010181Y014181D03*
X004931Y016056D03*
D23*
X002181Y011181D03*
X001681Y009181D03*
X009431Y010681D03*
X010681Y009681D03*
X015681Y011681D03*
X015681Y012681D03*
X016181Y010681D03*
X018181Y009181D03*
X018681Y007181D03*
X016681Y006181D03*
X014181Y014681D03*
M02*
