%
M48
M72
T01C0.0197
T02C0.0236
T03C0.0276
T04C0.0315
T05C0.0320
T06C0.0400
T07C0.0748
%
T01
X1681Y9181
X2181Y11181
X9431Y10681
X10681Y9681
X15681Y11681
X15681Y12681
X16181Y10681
X18181Y9181
X18681Y7181
X16681Y6181
X14181Y14681
T02
X4931Y16056
X10181Y14181
T03
X8181Y17181
X8181Y16181
X14181Y6681
X14181Y5681
T04
X6181Y5181
X6181Y6181
X6181Y7181
X3351Y16081
X2681Y16081
X2351Y16701
X3041Y16701
X1981Y16081
X13181Y18681
X15181Y18681
X16681Y18681
X18681Y18681
T05
X7681Y19181
X8681Y19181
X9681Y17181
X9681Y16181
X11181Y17681
X11181Y18681
X12181Y16181
X11681Y14681
X11681Y13681
X11681Y12681
X11681Y11681
X11681Y10681
X11681Y9681
X11681Y8681
X11681Y7681
X11681Y6681
X11681Y5681
X11681Y4681
X11681Y3681
X11681Y2681
X11681Y1681
X8681Y1681
X8681Y2681
X8681Y3681
X8681Y4681
X8681Y5681
X8681Y6681
X8681Y7681
X8681Y8681
X8681Y9681
X8681Y10681
X8681Y11681
X8681Y12681
X8681Y13681
X8681Y14681
X13181Y14681
X13181Y13681
X16181Y16181
X17181Y16681
X18681Y16681
X18681Y12681
X17181Y12681
X15681Y9181
X15681Y8181
X15681Y6681
X17181Y4681
X17181Y3681
X17181Y2681
X15681Y2681
X17181Y8681
X7181Y2681
X6181Y2681
T06
X681Y1181
X681Y2181
X681Y3181
X681Y4181
X681Y6181
X681Y7181
X681Y8181
X681Y9181
X681Y11181
X681Y12181
X681Y13181
X681Y14181
X6181Y16181
X6181Y17181
X6181Y18181
X19181Y9181
X19181Y8181
X19181Y7181
X19181Y6181
X19181Y4181
X19181Y3181
X19181Y2181
X19181Y1181
X7181Y1181
X6181Y1181
X5181Y1181
X4181Y1181
X3181Y1181
T07
X1244Y18181
X4118Y18181
M30
